# xmcd
#
# Track frame offsets:
#	150
#	13080
#	25488
#	37182
#	50980
#	62861
#	74280
#	88023
#	103326
#	116432
#	130216
#	144200
#	158646
#	174003
#	187763
#	201341
#	216223
#	229613
#	244324
#	259091
#	270960
#	284032
#	297256
#	309830
#	322244
#
# Disc length: 4500 seconds
#
# Revision: 0
# Processed by: cddbd v1.5.2PL0 Copyright (c) Steve Scherf et al.
# Submitted via: EasyCDDAExtractor 15.3.0.1
#
DISCID=7a119219
DTITLE=Kelly Harrell - Worried Blues CD A (Kelly Harrell's complete commercial
DTITLE=output)
DYEAR=1900
DGENRE=blues bluegrass country
TTITLE0=The Dying Hobo
TTITLE1=Beneath The Weeping Willow Tree
TTITLE2=My Horses Ain't Hungry
TTITLE3=Bright Sherman Valley
TTITLE4=The Cuckoo She's A Fine Bird
TTITLE5=Hand Me Down My Walking Cane
TTITLE6=Bye And Bye You Will Soon Forget Me
TTITLE7=Oh My Pretty Monkey
TTITLE8=I Love My Sweetheart The Best
TTITLE9=Henry Clay beattie
TTITLE10=I Want A Nice Little Fellow
TTITLE11=My Name Is John Jo Hannah
TTITLE12=In The Shadow Of The Pine
TTITLE13=Charles Giteau
TTITLE14=I'm Nobody Darling On Earth
TTITLE15=My Wife She Has Gone And Left Me
TTITLE16=Row Us Over The Tide
TTITLE17=I Have No Loving Mother Now
TTITLE18=For Seven Long Years I've Been Married
TTITLE19=Charley He Is A Good Old Man
TTITLE20=The Handpecked Man
TTITLE21=She Just Kept Kissing On
TTITLE22=All My Sins Are Taken Away
TTITLE23=Cave Love Has Gained The Day
TTITLE24=I heard Somebody Call My Name
EXTD=
EXTT0=
EXTT1=
EXTT2=
EXTT3=
EXTT4=
EXTT5=
EXTT6=
EXTT7=
EXTT8=
EXTT9=
EXTT10=
EXTT11=
EXTT12=
EXTT13=
EXTT14=
EXTT15=
EXTT16=
EXTT17=
EXTT18=
EXTT19=
EXTT20=
EXTT21=
EXTT22=
EXTT23=
EXTT24=
PLAYORDER=
